# xmcd
#
# Track frame offsets:
#	150
#	14750
#	30115
#	45416
#	62101
#	83216
#	100740
#	117807
#	137558
#	150820
#	171494
#	188328
#	206459
#	226861
#	243939
#	261272
#	288238
#	301452
#
# Disc length: 4260 seconds
#
# Revision: 1
# Processed by: cddbd v1.5.1PL2 Copyright (c) Steve Scherf et al.
# Submitted via: audiograbber 1.83.01
#
DISCID=dc10a212
DTITLE=Various Artist - '70s Gold - Disc One
DYEAR=2006
DGENRE=Oldies
TTITLE0=Three Dog Night - Joy To The World
TTITLE1=The Doobie Brothers - Listen To The Music
TTITLE2=Stealers Wheel - Stuck In The Middle With You
TTITLE3=Rod Stewart - Maggie May
TTITLE4=Elton John - Rocket Man
TTITLE5=Nazareth - Love Hurts
TTITLE6=Free - All Right Now
TTITLE7=Thin Lizzy - The Boys Are Back In Town
TTITLE8=Brownsville Station - Smokin' In The Boy's Room
TTITLE9=Elvin Bishop - Fooled Around And Fell In Love
TTITLE10=The Cars - My Best Friend's Girl
TTITLE11=The Knack - My Sharona
TTITLE12=Blondie - Heart Of Glass
TTITLE13=Manfred Mann's Earth Band - Blinded By The Light
TTITLE14=Todd Rundgren - Hello It's Me
TTITLE15=10cc - I'm Not In Love
TTITLE16=Poco - Crazy Love
TTITLE17=Cat Stevens - Peace Train
EXTD=
EXTT0=
EXTT1=
EXTT2=
EXTT3=
EXTT4=
EXTT5=
EXTT6=
EXTT7=
EXTT8=
EXTT9=
EXTT10=
EXTT11=
EXTT12=
EXTT13=
EXTT14=
EXTT15=
EXTT16=
EXTT17=
PLAYORDER=
